<svg fill="none" height="70" viewBox="0 0 70 70" width="70" xmlns="http://www.w3.org/2000/svg" xmlns:xlink="http://www.w3.org/1999/xlink"><linearGradient id="a" gradientUnits="userSpaceOnUse" x1="35" x2="35" y1="0" y2="70"><stop offset="0" stop-color="#826ab4"/><stop offset="1" stop-color="#614897"/></linearGradient><circle cx="35" cy="35" fill="url(#a)" r="32" stroke="#fff" stroke-width="6" transform="matrix(-1 0 0 1 70 0)"/><path clip-rule="evenodd" d="m48.7088 20.551c-1.4183-1.3068-3.6275-1.2164-4.9344.202l-8.8195 9.5724-9.5724-8.8196c-1.4184-1.3068-3.6276-1.2164-4.9344.202-1.3069 1.4183-1.2164 3.6275.2019 4.9344l9.5725 8.8196-8.8195 9.5723c-1.3068 1.4183-1.2164 3.6275.202 4.9343 1.4184 1.3069 3.6276 1.2164 4.9344-.2019l8.8195-9.5723 9.5722 8.8193c1.4183 1.3069 3.6275 1.2164 4.9344-.2019 1.3068-1.4184 1.2164-3.6276-.202-4.9344l-9.5722-8.8194 8.8195-9.5724c1.3068-1.4183 1.2164-3.6275-.202-4.9344z" fill="#fff" fill-rule="evenodd"/></svg>