<svg fill="none" height="90" viewBox="0 0 90 90" width="90" xmlns="http://www.w3.org/2000/svg" xmlns:xlink="http://www.w3.org/1999/xlink"><linearGradient id="a" gradientUnits="userSpaceOnUse" x1="45" x2="45" y1="0" y2="90"><stop offset="0" stop-color="#826ab4"/><stop offset="1" stop-color="#614897"/></linearGradient><circle cx="45" cy="45" fill="url(#a)" r="42" stroke="#fff" stroke-width="6" transform="matrix(-1 0 0 1 90 0)"/><path d="m64.937 31.406h-5.877c.8409-1.2232 1.3085-2.6644 1.3458-4.1484.0335-1.1304-.1644-2.2558-.5817-3.307s-1.045-2.006-1.8447-2.8057c-.7998-.7997-1.7545-1.4275-2.8057-1.8448-1.0512-.4172-2.1766-.6151-3.3071-.5816-1.0441.0223-2.0724.2602-3.0202.6988s-1.7947 1.0685-2.4875 1.85c-.511.5829-.9661 1.2125-1.3594 1.8805-.3933-.668-.8484-1.2976-1.3594-1.8805-.6928-.7815-1.5397-1.4114-2.4875-1.85s-1.976-.6765-3.0202-.6988c-1.1305-.0335-2.2559.1644-3.3071.5816-1.0511.4173-2.0059 1.0451-2.8056 1.8448-.7998.7997-1.4275 1.7545-1.8448 2.8057-.4172 1.0512-.6152 2.1766-.5816 3.307.0373 1.484.5048 2.9252 1.3457 4.1484h-5.877c-1.2018 0-2.3543.4774-3.2041 1.3272-.8497.8497-1.3271 2.0023-1.3271 3.204v7.25c-.0003 1.0446.3605 2.0572 1.021 2.8664.6606.8092 1.5805 1.3654 2.604 1.5743v13.6843c0 1.2018.4774 2.3543 1.3271 3.2041.8498.8498 2.0023 1.3272 3.2041 1.3272h32.625c1.2018 0 2.3543-.4774 3.2041-1.3272s1.3272-2.0023 1.3272-3.2041v-13.6843c1.0234-.2089 1.9433-.7651 2.6039-1.5743s1.0213-1.8218 1.0211-2.8664v-7.25c0-1.2017-.4774-2.3543-1.3272-3.204-.8498-.8498-2.0023-1.3272-3.2041-1.3272zm-.9062 10.875h-16.3125v-5.4375h16.3125zm-13.5938-17.4068c.2006-.2226.445-.4013.7179-.5249s.5685-.1894.868-.1933h.0793c.3835-.0011.7632.0749 1.1166.2236.3534.1486.6733.3668.9407.6416s.4768.6005.6157.9579c.139.3573.2046.739.1931 1.1222-.0039.2996-.0698.5951-.1933.8681-.1236.2729-.3024.5173-.5249.7178-1.5633 1.3866-4.1348 2.098-6.26 2.4379.3399-2.1161 1.0513-4.6876 2.4469-6.2509zm-14.568.1201c.5378-.5321 1.2622-.8329 2.0187-.8383h.0884c.2996.0039.5951.0697.868.1933.273.1236.5174.3023.7179.5249 1.3866 1.5633 2.098 4.1325 2.4356 6.2554-2.1071-.3421-4.7012-1.0535-6.2486-2.4424-.2226-.2005-.4013-.4449-.5249-.7178-.1236-.273-.1894-.5685-.1933-.8681-.0101-.3896.0591-.7773.2031-1.1394.1441-.3622.3602-.6914.6351-.9676zm-9.9007 11.8492h16.3125v5.4375h-16.3125zm3.625 10.875h12.6875v12.6875h-12.6875zm18.125 12.6875v-12.6875h12.6875v12.6875z" fill="#fff"/></svg>