<svg fill="none" height="60" viewBox="0 0 60 60" width="60" xmlns="http://www.w3.org/2000/svg" xmlns:xlink="http://www.w3.org/1999/xlink"><linearGradient id="a" gradientUnits="userSpaceOnUse" x1="25" x2="25" y1="0" y2="50"><stop offset="0" stop-color="#826ab4"/><stop offset="1" stop-color="#614897"/></linearGradient><circle cx="25" cy="25" fill="url(#a)" r="27.5" stroke="#fff" stroke-width="5" transform="matrix(-1 0 0 1 55 5)"/><path clip-rule="evenodd" d="m29.7692 15.1855c-1.4063 0-2.5463 1.1401-2.5463 2.5463v9.4899h-9.4911c-1.4062 0-2.5463 1.14-2.5463 2.5463s1.1401 2.5463 2.5463 2.5463h9.4911v9.4916c0 1.4063 1.14 2.5463 2.5463 2.5463s2.5463-1.14 2.5463-2.5463v-9.4916h9.4904c1.4063 0 2.5463-1.14 2.5463-2.5463s-1.14-2.5463-2.5463-2.5463h-9.4904v-9.4899c0-1.4062-1.14-2.5463-2.5463-2.5463z" fill="#fff" fill-rule="evenodd"/></svg>